<svg id="Layer_1" data-name="Layer 1" xmlns="http://www.w3.org/2000/svg" viewBox="470 390 980 290">
  <defs>
    
  </defs>
  <g>
    <g>
      <g>
        <path d="M521.28,536.24c-1.27,0-2.53-.48-3.5-1.45-1.94-1.93-1.94-5.07,0-7.01,12.54-12.56,17.55-31.01,13.08-48.15-2.25-8.64-6.77-16.53-13.07-22.81-1.94-1.93-1.94-5.07,0-7.01,1.93-1.94,5.07-1.94,7.01,0,7.55,7.53,12.96,16.98,15.66,27.33,5.35,20.52-.65,42.62-15.66,57.65-.97.97-2.24,1.45-3.51,1.45Z"></path>
        <path d="M506.11,521.07c-1.27,0-2.53-.48-3.5-1.45-1.94-1.93-1.94-5.07,0-7.01,7.18-7.19,10.05-17.76,7.49-27.57-1.29-4.94-3.88-9.46-7.48-13.06-1.94-1.93-1.94-5.07,0-7.01,1.93-1.94,5.07-1.94,7.01,0,4.85,4.85,8.34,10.92,10.07,17.57,3.44,13.2-.41,27.4-10.07,37.07-.97.97-2.24,1.45-3.51,1.45Z"></path>
      </g>
      <g>
        <path d="M549.8,464.46c1.34-4.27,2.99-8.45,4.94-12.5-3.72-6.69-8.36-12.86-13.82-18.3-1.94-1.93-5.07-1.93-7.01,0-1.93,1.94-1.93,5.07,0,7.01,6.82,6.81,12.21,14.91,15.87,23.79Z"></path>
        <path d="M549.74,520.16c-3.61,8.77-8.93,16.89-15.82,23.78-1.93,1.94-1.93,5.07,0,7.01.97.96,2.23,1.45,3.5,1.45s2.54-.48,3.51-1.45c5.48-5.49,10.07-11.66,13.75-18.28-1.95-4.03-3.6-8.21-4.95-12.5Z"></path>
      </g>
      <g>
        <path d="M691.46,424.31h25.61c5.29,0,9.07,1.28,11.71,4.08,2.19,2.42,3.55,5.82,3.55,9.14,0,3.02-1.06,5.89-3.02,7.93-1.51,1.59-2.72,2.27-5.44,3.1,6.42,1.59,9.75,5.51,9.75,11.79,0,4.91-2.19,9.52-5.59,11.79-2.72,1.81-6.5,2.57-12.54,2.57h-24.02v-50.39ZM712.83,443.65c3.1,0,4.91-1.59,4.91-4.38,0-2.64-1.81-4.15-5.14-4.15h-6.87v8.54h7.1ZM713.29,463.44c3.25,0,5.36-1.74,5.36-4.53s-2.19-4.53-5.89-4.53h-7.03v9.07h7.55Z"></path>
        <path d="M776,474.7h-13.6v-6.19c-1.96,4.61-5.89,6.95-11.63,6.95-7.25,0-11.26-4.08-11.26-11.48v-26.82h14.73v23.65c0,3.02.68,4,2.95,4,2.64,0,4.31-1.96,4.31-5.14v-22.51h14.5v37.55Z"></path>
        <path d="M783.71,474.7v-37.55h12.24v7.78c1.81-6.12,4.53-8.46,9.97-8.46.6,0,1.06,0,1.96.15v13.07c-1.28-.3-1.89-.38-2.8-.38-4.91,0-7.25,2.57-7.25,8.16v17.22h-14.13Z"></path>
        <path d="M834.32,474.7v-23.65c0-3.25-.83-4.53-3.1-4.53-2.79,0-4.08,1.81-4.08,5.59v22.59h-14.73v-37.55h13.67v5.29c1.13-2.04,1.89-2.95,3.25-3.93,1.81-1.28,4.83-2.12,7.71-2.12,3.55,0,6.8,1.21,8.99,3.17,2.42,2.27,3.02,4.46,3.02,11.11v24.02h-14.73Z"></path>
        <path d="M895.29,462.16c-1.96,8.31-9.29,13.3-19.49,13.3-12.47,0-21-7.71-21-19.04,0-5.44,2.27-11.03,5.82-14.5,3.63-3.55,8.91-5.51,14.81-5.51,12.09,0,19.94,8.01,19.94,20.32,0,.38,0,1.29-.08,2.19h-25.08c0,2.95.23,3.93,1.06,4.99.98,1.28,2.57,1.96,4.69,1.96,3.32,0,4.83-1.21,5.67-4.61l13.67.91ZM880.64,451.51c-.15-4.53-1.66-6.42-5.21-6.42s-5.29,2.12-5.29,6.42h10.5Z"></path>
        <path d="M909.65,462.46c.91,2.95,3.1,4.08,7.86,4.08,3.63,0,5.74-.83,5.74-2.27s-1.06-1.81-7.86-2.72c-4.38-.6-8.16-1.74-10.58-3.1-3.1-1.66-5.06-5.29-5.06-9.14,0-7.86,6.95-12.92,17.68-12.92,8.76,0,14.66,3.4,17.15,9.82l-11.18,2.12c-1.21-2.34-3.17-3.32-6.57-3.32-2.64,0-4.61.83-4.61,2.04,0,.53.38,1.06,1.06,1.44.83.45,1.44.6,7.48,1.28,5.51.68,8.16,1.44,10.65,3.1,3.1,2.12,4.83,5.36,4.83,9.22,0,8.31-7.33,13.37-19.42,13.37-10.12,0-16.17-3.7-18.81-11.41l11.63-1.59Z"></path>
        <path d="M1002.58,456.34c-.83,6.27-2.27,9.52-5.67,13.07-3.85,4-9.14,6.04-15.49,6.04-13.98,0-22.89-9.9-22.89-25.54,0-8.31,2.49-15.56,7.03-20.32,3.85-4,9.29-6.04,16.02-6.04,8.39,0,14.5,3.32,18.06,9.75,1.74,3.1,2.49,5.67,2.95,10.43l-14.35.83c-.08-2.87-.3-4.16-1.06-5.82-.98-2.27-3.1-3.78-5.51-3.78-2.57,0-4.83,1.81-5.89,4.68-.98,2.57-1.36,5.59-1.36,10.35,0,9.75,2.19,13.83,7.25,13.83,4.08,0,6.35-2.72,6.8-8.39l14.13.91Z"></path>
        <path d="M1046.55,462.16c-1.96,8.31-9.29,13.3-19.49,13.3-12.46,0-21-7.71-21-19.04,0-5.44,2.27-11.03,5.82-14.5,3.63-3.55,8.91-5.51,14.81-5.51,12.09,0,19.94,8.01,19.94,20.32,0,.38,0,1.29-.08,2.19h-25.08c0,2.95.23,3.93,1.06,4.99.98,1.28,2.57,1.96,4.68,1.96,3.32,0,4.83-1.21,5.67-4.61l13.67.91ZM1031.89,451.51c-.15-4.53-1.66-6.42-5.21-6.42s-5.29,2.12-5.29,6.42h10.5Z"></path>
        <path d="M1074.28,474.7v-23.65c0-3.25-.83-4.53-3.1-4.53-2.79,0-4.08,1.81-4.08,5.59v22.59h-14.73v-37.55h13.67v5.29c1.13-2.04,1.89-2.95,3.25-3.93,1.81-1.28,4.83-2.12,7.71-2.12,3.55,0,6.8,1.21,8.99,3.17,2.42,2.27,3.02,4.46,3.02,11.11v24.02h-14.73Z"></path>
        <path d="M1119.91,446.75h-7.48v13.83c0,2.87.83,3.85,3.4,3.85,1.13,0,2.57-.23,4.08-.6v10.5c-3.4.6-5.59.83-8.46.83-5.06,0-7.93-.91-10.2-3.17-1.89-1.89-2.72-3.85-2.95-7.18q-.08-.98-.08-6.27v-11.79h-5.59v-9.59h6.27l.98-12.01,12.84-.45-.3,12.46h7.48v9.59Z"></path>
        <path d="M1163.28,462.16c-1.96,8.31-9.29,13.3-19.49,13.3-12.46,0-21-7.71-21-19.04,0-5.44,2.27-11.03,5.82-14.5,3.63-3.55,8.91-5.51,14.81-5.51,12.09,0,19.94,8.01,19.94,20.32,0,.38,0,1.29-.08,2.19h-25.08c0,2.95.23,3.93,1.06,4.99.98,1.28,2.57,1.96,4.68,1.96,3.32,0,4.83-1.21,5.67-4.61l13.67.91ZM1148.62,451.51c-.15-4.53-1.66-6.42-5.21-6.42s-5.29,2.12-5.29,6.42h10.5Z"></path>
        <path d="M1169.1,474.7v-37.55h12.24v7.78c1.81-6.12,4.53-8.46,9.97-8.46.6,0,1.06,0,1.96.15v13.07c-1.28-.3-1.89-.38-2.79-.38-4.91,0-7.25,2.57-7.25,8.16v17.22h-14.13Z"></path>
        <path d="M706.79,550h-13.9v-27.95h-5.59v-9.59h5.59c0-6.35.3-8.01,2.04-10.58,2.27-3.32,5.89-4.76,12.31-4.76,3.63,0,6.65.3,10.65.98v9.52q-5.29-.6-6.65-.6c-3.32,0-4.61,1.13-4.61,4.23v1.21h9.59v9.59h-9.44v27.95Z"></path>
        <path d="M759.45,531.34c0,11.33-8.69,19.42-20.85,19.42s-20.32-8.16-20.32-19.42,8.61-19.64,20.62-19.64,20.55,7.93,20.55,19.64ZM733.92,531.27c0,7.71,1.36,10.58,4.83,10.58,2.04,0,3.4-.83,4-2.49.6-1.81,1.06-5.14,1.06-8.39,0-7.33-1.36-10.05-4.91-10.05s-4.99,3.02-4.99,10.35Z"></path>
        <path d="M765.12,550v-37.55h12.24v7.78c1.81-6.12,4.53-8.46,9.97-8.46.6,0,1.06,0,1.96.15v13.07c-1.28-.3-1.89-.38-2.8-.38-4.91,0-7.25,2.57-7.25,8.16v17.22h-14.13Z"></path>
        <path d="M822.46,532.85c1.59,4.38,4.08,6.04,9.37,6.04,3.7,0,5.74-1.13,5.74-3.17s-1.59-3.17-6.12-4c-6.12-1.21-10.43-2.57-13.75-4.31-4.46-2.27-7.03-6.72-7.03-12.01,0-9.97,8.16-16.54,20.7-16.54,10.35,0,17.3,4.15,20.55,12.39l-12.84,3.85c-1.43-3.55-3.85-5.06-8.08-5.06-3.1,0-4.99,1.21-4.99,3.17s1.28,2.72,5.59,3.63c9.37,1.96,11.33,2.57,14.58,4.31,4.38,2.42,7.1,7.18,7.1,12.54,0,10.27-8.99,17.07-22.59,17.07-7.33,0-13.15-2.04-17.45-6.12-2.57-2.49-3.85-4.76-5.14-9.22l14.35-2.57Z"></path>
        <path d="M898.01,531.34c0,11.33-8.69,19.42-20.85,19.42s-20.32-8.16-20.32-19.42,8.61-19.64,20.62-19.64,20.55,7.93,20.55,19.64ZM872.48,531.27c0,7.71,1.36,10.58,4.84,10.58,2.04,0,3.4-.83,4-2.49.6-1.81,1.06-5.14,1.06-8.39,0-7.33-1.36-10.05-4.91-10.05s-4.99,3.02-4.99,10.35Z"></path>
        <path d="M938.81,535.95c-.68,4.16-1.66,6.5-3.85,9.07-3.4,3.93-7.86,5.74-14.05,5.74-5.44,0-9.44-1.44-12.99-4.61-4-3.63-6.19-8.76-6.19-14.66,0-11.71,7.93-19.79,19.49-19.79,5.21,0,9.59,1.66,12.92,5.06,2.72,2.79,3.85,5.29,4.53,9.82l-12.84,1.13c-.38-2.12-.45-2.42-.76-3.25-.6-1.74-1.96-2.72-3.78-2.72-3.25,0-4.53,2.79-4.53,9.67,0,6.35,1.44,8.99,4.76,8.99,2.72,0,4.23-1.66,4.76-5.51l12.54,1.06Z"></path>
        <path d="M957.93,509.73h-14.73v-11.63h14.73v11.63ZM957.93,550h-14.73v-37.55h14.73v37.55Z"></path>
        <path d="M989.51,550c-.45-2.12-.53-3.32-.53-5.21-3.02,4.16-6.57,5.97-12.09,5.97-7.93,0-13.22-4.46-13.22-11.18,0-5.21,3.55-9.67,9.37-11.56,4.23-1.36,9.14-2.12,15.18-2.42v-.91c0-2.95-1.21-4.08-4.46-4.08s-5.21,1.36-5.67,4.08l-13.37-1.21c1.06-4,2.42-6.12,5.21-8.08,3.63-2.57,8.01-3.7,14.28-3.7,7.55,0,13.22,1.89,15.94,5.21,1.81,2.19,2.19,4.15,2.19,10.8v14.96c0,3.32.15,4.53,1.13,7.33h-13.98ZM988.23,532.47c-6.35.68-9.37,2.64-9.37,5.97,0,2.12,1.36,3.4,3.7,3.4,4,0,5.67-2.19,5.67-7.63v-1.74Z"></path>
        <path d="M1024.49,550h-14.5v-50.39h14.5v50.39Z"></path>
        <path d="M1093.47,531.64c-.83,6.27-2.27,9.52-5.67,13.07-3.85,4-9.14,6.04-15.49,6.04-13.98,0-22.89-9.9-22.89-25.54,0-8.31,2.49-15.56,7.03-20.32,3.85-4,9.29-6.04,16.02-6.04,8.39,0,14.5,3.32,18.06,9.75,1.74,3.1,2.49,5.67,2.95,10.43l-14.35.83c-.08-2.87-.3-4.16-1.06-5.82-.98-2.27-3.1-3.78-5.51-3.78-2.57,0-4.83,1.81-5.89,4.68-.98,2.57-1.36,5.59-1.36,10.35,0,9.75,2.19,13.83,7.25,13.83,4.08,0,6.35-2.72,6.8-8.39l14.13.91Z"></path>
        <path d="M1120.75,550v-22.59c0-3.02-.08-3.4-.6-4.23-.53-.75-1.51-1.21-2.64-1.21-1.89,0-3.55,1.21-4,2.87q-.15.76-.15,3.93v21.23h-14.73v-50.39h14.73v17.3c2.8-3.63,5.97-5.21,10.35-5.21,4.15,0,7.55,1.44,9.67,4.16,1.74,2.27,2.12,3.85,2.12,9.75v24.4h-14.73Z"></path>
        <path d="M1167.13,550c-.45-2.12-.53-3.32-.53-5.21-3.02,4.16-6.57,5.97-12.09,5.97-7.93,0-13.22-4.46-13.22-11.18,0-5.21,3.55-9.67,9.37-11.56,4.23-1.36,9.14-2.12,15.18-2.42v-.91c0-2.95-1.21-4.08-4.46-4.08s-5.21,1.36-5.67,4.08l-13.37-1.21c1.06-4,2.42-6.12,5.21-8.08,3.63-2.57,8.01-3.7,14.28-3.7,7.55,0,13.22,1.89,15.94,5.21,1.81,2.19,2.19,4.15,2.19,10.8v14.96c0,3.32.15,4.53,1.13,7.33h-13.98ZM1165.85,532.47c-6.35.68-9.37,2.64-9.37,5.97,0,2.12,1.36,3.4,3.7,3.4,4,0,5.67-2.19,5.67-7.63v-1.74Z"></path>
        <path d="M1209.52,550v-23.65c0-3.25-.83-4.53-3.1-4.53-2.79,0-4.08,1.81-4.08,5.59v22.59h-14.73v-37.55h13.67v5.29c1.13-2.04,1.89-2.95,3.25-3.93,1.81-1.28,4.83-2.12,7.71-2.12,3.55,0,6.8,1.21,8.99,3.17,2.42,2.27,3.02,4.46,3.02,11.11v24.02h-14.73Z"></path>
        <path d="M1271.09,514.04c-2.19-.15-3.02-.23-3.55-.23-2.42,0-3.4.3-4.16,1.44,2.72,2.19,4.23,5.29,4.23,8.61,0,7.25-6.19,11.33-17.22,11.33q-.45,0-2.79-.15h-.45c-2.57,0-3.63.53-3.63,1.81,0,1.21.75,1.66,3.17,1.74l12.01.53c3.63.15,6.8,1.13,8.76,2.8,2.42,1.96,4,5.51,4,8.84,0,4.08-2.27,7.78-5.82,9.59-3.85,1.89-8.54,2.64-16.62,2.64-13.83,0-20.47-3.1-20.47-9.44,0-3.4,1.66-5.59,5.36-7.18-2.49-1.89-3.48-3.55-3.48-5.89s1.13-4.53,3.02-6.04c1.06-.83,1.89-1.28,4.23-2.27-4.38-2.12-6.04-4.46-6.04-8.69,0-7.48,6.8-11.86,18.21-11.86,2.79,0,4.31.15,7.03.83,1.06-6.12,3.93-8.84,9.29-8.84,1.44,0,2.04,0,5.29.3l-.38,10.12ZM1246.16,549.55c-.53-.08-1.21-.08-1.59-.08-2.87,0-3.85.6-3.85,2.34,0,2.49,2.87,3.47,10.12,3.47,5.97,0,7.71-.68,7.71-2.95,0-1.66-.91-2.27-3.4-2.42l-8.99-.38ZM1245.48,523.64c0,2.95,1.59,4.61,4.38,4.61s4.38-1.66,4.38-4.53-1.59-4.68-4.31-4.68-4.46,1.74-4.46,4.61Z"></path>
        <path d="M1313.48,537.46c-1.96,8.31-9.29,13.3-19.49,13.3-12.46,0-21-7.71-21-19.04,0-5.44,2.27-11.03,5.82-14.5,3.63-3.55,8.91-5.51,14.81-5.51,12.09,0,19.94,8.01,19.94,20.32,0,.38,0,1.29-.08,2.19h-25.08c0,2.95.23,3.93,1.06,4.99.98,1.28,2.57,1.96,4.68,1.96,3.32,0,4.83-1.21,5.67-4.61l13.67.91ZM1298.82,526.81c-.15-4.53-1.66-6.42-5.21-6.42s-5.29,2.12-5.29,6.42h10.5Z"></path>
      </g>
      <g>
        <path fill="#c8102e" d="M583.16,552.4c-1.27,0-2.53-.48-3.5-1.45-10.42-10.4-17.89-23.44-21.62-37.71-7.39-28.33.89-58.82,21.61-79.57,1.93-1.94,5.07-1.94,7.01,0,1.94,1.93,1.94,5.07,0,7.01-18.25,18.28-25.54,45.13-19.04,70.07,3.28,12.57,9.86,24.05,19.03,33.2,1.94,1.93,1.94,5.07,0,7.01-.97.97-2.24,1.45-3.51,1.45Z"></path>
        <path fill="#c8102e" d="M599.31,536.24c-1.27,0-2.53-.48-3.5-1.45-7.55-7.53-12.97-16.98-15.66-27.33-5.35-20.52.65-42.62,15.66-57.65,1.93-1.94,5.07-1.94,7.01,0,1.94,1.93,1.94,5.07,0,7.01-12.54,12.56-17.55,31.01-13.08,48.15,2.25,8.64,6.77,16.52,13.07,22.81,1.94,1.93,1.94,5.07,0,7.01-.97.97-2.24,1.45-3.51,1.45Z"></path>
        <path fill="#c8102e" d="M614.48,521.07c-1.27,0-2.53-.48-3.5-1.45-4.85-4.85-8.34-10.92-10.07-17.57-3.44-13.2.42-27.4,10.07-37.07,1.93-1.94,5.07-1.94,7.01,0,1.94,1.93,1.94,5.07,0,7.01-7.18,7.19-10.05,17.76-7.49,27.57,1.29,4.94,3.88,9.46,7.48,13.06,1.94,1.93,1.94,5.07,0,7.01-.97.97-2.24,1.45-3.51,1.45Z"></path>
      </g>
    </g>
    <g>
      <path d="M1397.17,639.45l11.93-26.45c2.34-5.2,3.09-6.34,5.57-6.98v-1.77s-12.49.02-12.49.02v1.77c4.12.88,4.57,2.97,2.68,7.41l-4.8,11.48-5.98-13.49c-1.27-2.98-1.09-4.69,3.29-5.2v-1.97s-16.67.03-16.67.03v1.97c1.97.5,2.73,1.33,4.45,4.87l10.63,22.8-1.77,3.81c-1.01,2.22-1.96,3.87-3.03,4.82-.77-2.6-2.23-3.99-4.51-3.99-2.28,0-4.24,1.53-4.24,4.51,0,2.98,2.42,5.19,5.27,5.19,4.06,0,6.59-2.04,9.68-8.83M1380.23,631.49l-.95-2.03c-1.71.76-3.23,1.15-4.56,1.15-2.98,0-3.74-1.51-3.75-3.61l-.03-19.08h8.05s0-3.63,0-3.63h-8.05s-.01-5.88-.01-5.88h-1.14s-11.4,7.5-11.4,7.5v2.03s4.63,0,4.63,0l.04,20.73c0,4.12,2.36,6.33,6.98,6.33,3.61,0,7.16-1.22,10.2-3.5M1356.14,632.42c-3.93-.56-4.5-1.39-4.51-4.87l-.04-24.28h-3.11s-9.31,6.11-9.31,6.11v1.39s4.5,0,4.5,0l.03,16.8c0,3.49-.63,4.31-4.49,4.89v1.97s16.93-.03,16.93-.03v-1.97ZM1347.08,598.53c2.66,0,4.81-2.16,4.81-4.89,0-2.41-1.85-4.37-4.32-4.37-2.79,0-4.88,2.16-4.87,4.83,0,2.47,1.85,4.43,4.38,4.43M1336.03,625.11c-.01-5.9-4.89-7.72-9.46-9.17-4.5-1.45-7.61-2.4-7.62-5.69,0-1.77,1.33-3.43,3.92-3.43,3.23,0,6.09,1.95,9.52,5.81l1.65-.76-2.42-7.86h-1.01s-1.14.95-1.14.95c-1.78-.76-3.81-1.2-5.96-1.19-6.72.01-11.09,3.89-11.08,9.72.01,5.9,4.89,7.6,9.46,9.11,4.5,1.51,7.61,2.4,7.62,5.75,0,2.09-1.58,3.68-4.62,3.68-4.25,0-7.48-2.78-11.36-7.71l-1.71.64,2.49,9.88h1.08s1.84-1.34,1.84-1.34c2.09,1.01,4.44,1.58,7.04,1.57,6.47-.01,11.78-3.82,11.77-9.97M1303.02,632.52c-4.12-.63-4.69-1.51-4.7-5.44l-.02-13.06c1.26-2.28,2.47-3.93,3.73-5.08,0,2.47,1.72,4.05,3.87,4.05s4.24-1.72,4.24-5.02c0-2.79-1.59-4.5-4.38-4.49-3.11,0-5.51,2.61-7.79,6.29v-6.4s-2.8,0-2.8,0l-9.18,6.04v1.39s4.38,0,4.38,0l.03,16.86c0,3.49-.56,4.37-4.18,4.89v1.97s16.8-.03,16.8-.03v-1.97ZM1263.31,615.35c0-5.13,2.14-8.18,6.32-8.19,2.92,0,4.76,2.08,5.53,6.2l-11.78,4.08c-.06-.7-.07-1.39-.07-2.09M1283.18,628.81l-1.71-1.33c-1.71,1.97-4.3,3.3-7.28,3.31-5.83.01-9.14-4.42-10.35-10.19l19.01-6.37c-.39-6.72-5.34-10.39-11.62-10.38-8.81.02-15.26,7.13-15.25,15.94.02,8.75,5.61,15.39,15.43,15.38,6.02-.01,9.63-2.68,11.78-6.36M1249.93,613.28c2.34-5.2,3.09-6.34,5.57-6.98v-1.77s-12.49.02-12.49.02v1.77c4.12.88,4.57,2.97,2.68,7.41l-4.8,11.48-5.98-13.49c-1.27-2.98-1.09-4.69,3.29-5.2v-1.97s-16.67.03-16.67.03v1.97c1.97.5,2.79,1.33,4.45,4.87l10.88,23.5h3.3s9.79-21.64,9.79-21.64ZM1221,632.66c-3.93-.56-4.5-1.39-4.51-4.87l-.04-24.28h-3.11s-9.31,6.11-9.31,6.11v1.39s4.5,0,4.5,0l.03,16.8c0,3.49-.63,4.31-4.49,4.89v1.97s16.93-.03,16.93-.03v-1.97ZM1211.94,598.77c2.66,0,4.81-2.16,4.81-4.89,0-2.41-1.85-4.37-4.32-4.37-2.79,0-4.88,2.16-4.87,4.83,0,2.47,1.85,4.43,4.38,4.43M1179.99,632.74c-3.61-.5-4.19-1.39-4.19-4.87l-.03-14.64c3.16-2.86,5.76-4.26,8.04-4.26,3.11,0,4,1.58,4,4.43l.03,14.45c0,3.49-.56,4.37-4.17,4.89v1.97s16.29-.03,16.29-.03v-1.97c-3.62-.5-4.19-1.39-4.2-4.87l-.03-15.15c0-5.07-2.17-8.68-8.57-8.67-3.93,0-7.79,2.42-11.59,5.66v-6.09s-2.93,0-2.93,0l-9.18,6.04v1.39s4.38,0,4.38,0l.03,16.86c0,3.49-.56,4.37-4.17,4.89v1.97s16.29-.03,16.29-.03v-1.97ZM1110.83,595.59l.03,19.02c.02,12.3,6.44,20.84,22.6,20.81,16.16-.03,22.55-8.6,22.53-20.64l-.03-15.28c-.01-7.42,2.08-9.32,5.69-10.34v-1.97s-15.34.03-15.34.03v1.97c3.62,1.01,5.71,2.91,5.73,10.32l.03,15.28c.02,10.71-5.61,15.67-16.26,15.69-10.59.02-16.3-4.92-16.32-15.63l-.03-19.27c0-4.82,1.38-5.64,5.38-6.22v-2.09s-19.27.03-19.27.03v2.09c4,.56,5.27,1.39,5.28,6.2"></path>
      <path d="M1060.06,632.96c-3.61-.5-4.19-1.39-4.19-4.87l-.03-14.64c3.16-2.86,5.76-4.26,8.04-4.26,3.11,0,4,1.58,4,4.43l.03,14.45c0,3.49-.56,4.37-4.17,4.89v1.97s16.29-.03,16.29-.03v-1.97c-3.62-.5-4.19-1.39-4.2-4.87l-.03-15.15c0-5.07-2.17-8.68-8.57-8.67-3.93,0-7.79,2.42-11.59,5.66v-6.09s-2.93,0-2.93,0l-9.18,6.04v1.39s4.38,0,4.38,0l.03,16.86c0,3.49-.56,4.37-4.17,4.89v1.97s16.29-.03,16.29-.03v-1.97ZM1034.83,633.01c-4.12-.63-4.69-1.51-4.7-5.44l-.02-13.06c1.26-2.28,2.47-3.93,3.73-5.08,0,2.47,1.72,4.05,3.87,4.05,2.16,0,4.24-1.72,4.24-5.02,0-2.79-1.59-4.5-4.38-4.49-3.11,0-5.51,2.61-7.79,6.29v-6.4s-2.8,0-2.8,0l-9.18,6.04v1.39s4.38,0,4.38,0l.03,16.86c0,3.49-.56,4.37-4.17,4.89v1.97s16.8-.03,16.8-.03v-1.97ZM995.12,615.84c0-5.13,2.14-8.18,6.32-8.19,2.92,0,4.76,2.08,5.53,6.2l-11.78,4.08c-.06-.7-.07-1.39-.07-2.09M1014.98,629.3l-1.71-1.33c-1.71,1.97-4.3,3.3-7.28,3.31-5.83.01-9.14-4.42-10.35-10.19l19.01-6.37c-.39-6.72-5.34-10.39-11.62-10.38-8.81.02-15.26,7.13-15.25,15.94.02,8.75,5.61,15.39,15.43,15.38,6.02-.01,9.63-2.68,11.78-6.36M985.7,632.21l-.95-2.03c-1.71.76-3.23,1.15-4.56,1.15-2.98,0-3.74-1.51-3.75-3.61l-.03-19.08h8.05s0-3.63,0-3.63h-8.05s-.01-5.88-.01-5.88h-1.14s-11.4,7.5-11.4,7.5v2.03s4.63,0,4.63,0l.04,20.73c0,4.12,2.36,6.33,6.98,6.33,3.61,0,7.16-1.22,10.2-3.5M961.73,625.78c-.01-5.9-4.89-7.72-9.46-9.17-4.5-1.45-7.61-2.4-7.62-5.69,0-1.77,1.33-3.43,3.92-3.43,3.23,0,6.09,1.95,9.52,5.81l1.65-.76-2.42-7.86h-1.01s-1.14.95-1.14.95c-1.78-.76-3.81-1.2-5.96-1.19-6.72.01-11.09,3.89-11.08,9.72.01,5.9,4.89,7.6,9.46,9.11,4.5,1.51,7.61,2.4,7.62,5.75,0,2.09-1.58,3.68-4.62,3.68-4.25,0-7.48-2.78-11.36-7.71l-1.71.64,2.49,9.88h1.08s1.84-1.34,1.84-1.34c2.09,1.01,4.44,1.58,7.04,1.57,6.47-.01,11.78-3.82,11.77-9.97M912.92,627.07c0-3.23,1.45-4.76,8.86-6.8l.02,9.19c-1.77,1.4-3.36,2.03-4.94,2.04-2.47,0-3.93-1.32-3.94-4.43M926.88,635.54c2.73,0,5.64-1.28,7.54-2.61l-.57-1.77c-3.11.58-4.25.13-4.25-1.96l-.03-16.92c0-5.07-2.23-7.79-9.4-7.78-8.05.01-13.94,4.34-13.93,8.39,0,1.97,1.34,3.61,3.62,3.61,2.6,0,3.86-1.72,4.24-3.43.38-1.97-.26-3.42-1.21-4.24,1.58-.76,3.17-1.15,4.82-1.15,2.73,0,4.06.94,4.06,3.42v6.34c-11.33,2.81-16.52,5.29-16.51,11.31,0,4.63,2.99,7.09,7.68,7.09,2.98,0,6.4-1.28,9.31-3.57.45,2.09,1.91,3.29,4.63,3.29M881.91,616.04c0-5.13,2.14-8.18,6.32-8.19,2.92,0,4.76,2.08,5.53,6.2l-11.78,4.08c-.06-.7-.07-1.39-.07-2.09M901.77,629.5l-1.71-1.33c-1.71,1.97-4.3,3.3-7.28,3.31-5.83.01-9.14-4.42-10.35-10.19l19.01-6.37c-.39-6.72-5.34-10.39-11.62-10.38-8.81.02-15.26,7.13-15.25,15.94.02,8.75,5.61,15.39,15.43,15.38,6.02-.01,9.63-2.68,11.78-6.36M851.32,633.33c-3.61-.5-4.19-1.39-4.19-4.87l-.03-14.71c3.04-2.79,5.38-4.19,8.04-4.2,3.11,0,4,1.58,4,4.43l.03,14.45c0,3.49-.56,4.37-4.17,4.89v1.97s16.29-.03,16.29-.03v-1.97c-3.62-.5-4.19-1.39-4.2-4.87l-.03-15.15c0-5.07-2.17-8.68-8.57-8.67-3.87,0-7.67,2.3-11.4,5.47l-.04-25.1h-2.35s-10.19,6.68-10.19,6.68v1.39s4.63,0,4.63,0l.06,35.43c0,3.49-.56,4.37-4.17,4.89v1.97s16.29-.03,16.29-.03v-1.97ZM833.13,632.48l-.95-2.03c-1.71.76-3.23,1.15-4.56,1.15-2.98,0-3.74-1.51-3.75-3.61l-.03-19.08h8.05s0-3.63,0-3.63h-8.05s-.01-5.88-.01-5.88h-1.14s-11.4,7.5-11.4,7.5v2.03s4.63,0,4.63,0l.04,20.73c0,4.12,2.36,6.33,6.98,6.33,3.61,0,7.16-1.22,10.2-3.5M802.07,633.42c-4.12-.63-4.69-1.51-4.7-5.44l-.02-13.06c1.26-2.28,2.47-3.93,3.73-5.08,0,2.47,1.72,4.05,3.87,4.05s4.24-1.72,4.24-5.02c0-2.79-1.59-4.5-4.38-4.49-3.11,0-5.51,2.61-7.79,6.29v-6.4s-2.8,0-2.8,0l-9.18,6.04v1.39s4.38,0,4.38,0l.03,16.86c0,3.49-.56,4.37-4.17,4.89v1.97s16.8-.03,16.8-.03v-1.97ZM756.27,617.21c-.01-5.7,2.46-9.32,7.65-9.33,6.72-.01,8.7,8.23,8.71,15.77.01,5.7-2.46,9.32-7.65,9.33-6.72.01-8.7-8.23-8.71-15.77M780.56,620.02c-.01-8.3-5.61-15.27-15.81-15.25-10.27.02-16.4,7.45-16.39,16.07.01,8.3,5.61,15.27,15.81,15.25,10.27-.02,16.4-7.45,16.39-16.07M739.19,600.25c-.01-7.42,2.08-9.32,5.69-10.34v-1.97s-15.34.03-15.34.03v1.97c3.62,1.01,5.71,2.91,5.73,10.32l.04,22.31-32.39-32.59c-1.78-1.77-2.48-1.96-3.62-1.96l-11.98.02v1.97c2.6.25,4.13,1.26,7.11,4.11.95.89,1.84,1.96,1.84,3.74l.04,25.42c.01,7.42-2.08,9.32-5.69,10.34v1.97s15.34-.03,15.34-.03v-1.97c-3.62-1.01-5.71-2.91-5.73-10.32l-.04-23.96,36.45,36.51h2.6s-.06-35.57-.06-35.57Z"></path>
    </g>
  </g>
</svg>